<?xml version="1.0" encoding="utf-8"?>
<!-- Generator: Adobe Illustrator 15.0.0, SVG Export Plug-In . SVG Version: 6.00 Build 0)  -->
<!DOCTYPE svg PUBLIC "-//W3C//DTD SVG 1.1//EN" "http://www.w3.org/Graphics/SVG/1.1/DTD/svg11.dtd">
<svg version="1.1" id="Layer_1" xmlns="http://www.w3.org/2000/svg" xmlns:xlink="http://www.w3.org/1999/xlink" x="0px" y="0px"
	 width="130px" height="26px" viewBox="0 0 130 26" enable-background="new 0 0 130 26" xml:space="preserve">
<g>
	<g>
		<g>
			<g>
				<path fill="#686B8C" d="M80.099,12.275c2.628-1.121,4.181,1.398,4.181,1.398h4.381c0,0-0.718-5.518-7.646-5.518
					c0,0-6.928-0.161-7.327,8.236c0,0-0.796,9.037,7.486,9.6c0,0,6.69,0.08,7.486-5.68h-3.824c0,0-0.878,1.852-3.344,1.76
					c-2.928-0.109-3.266-3.238-3.266-3.238S77.47,13.395,80.099,12.275z"/>
				<path fill="#686B8C" d="M99.372,8.718c-4.103-0.48-6.731,0.16-7.725,1.318c0,0-1.555,1.44-1.513,3.159c0,0,2.316,1.025,4.14,0
					c0,0,0.241-1.279,2.828-1.159c0,0,1.989-0.039,2.349,1.159c0,0,0.239,1.201-1.116,1.52c0,0-1.433,0.521-2.626,0.561
					c0,0-4.82,0.439-5.617,2.759c0,0-1.71,3.961,0.839,6.56c0,0,1.591,1.879,6.609,1.281c0,0,1.709-0.217,3.076-1.086
					c0.114-0.021,0.247-0.027,0.393-0.005c0.378,0.324,1.393,1.064,2.705,0.969V12.636C103.712,12.636,103.471,9.196,99.372,8.718z
					 M96.436,22.465c-2.768,0.289-2.749-1.77-2.749-1.77c-0.268-1.959,2.45-2.37,2.45-2.37c1.656-0.409,3.376-1.052,3.376-1.052
					C100.198,22.371,96.436,22.465,96.436,22.465z"/>
				<path fill="#686B8C" d="M112.99,9.194c-7.227,0.061-7.526,6.359-7.526,6.359v10.438h4.481v-8.939
					c0.237-3.058,2.21-3.419,2.21-3.419l1.373-0.119c2.452-0.347,2.268-4.32,2.268-4.32L112.99,9.194L112.99,9.194L112.99,9.194z"/>
				<path fill="#686B8C" d="M122.771,13.686c3.035-0.097,2.882-4.339,2.882-4.339h-4.838V1.748h-1.612
					c-2.033,0-2.629,2.819-2.629,2.819v10.257v8.578c0.298,2.88,2.629,2.58,2.629,2.58h5.134v-2.459
					c-0.358-1.08-1.491-0.899-1.491-0.899c-1.732-0.061-2.03-0.54-2.03-0.54v-8.408L122.771,13.686z"/>
			</g>
			<g>
				<path fill="#686B8C" d="M6.431,12.283c2.628-1.12,4.182,1.399,4.182,1.399h4.381c0,0-0.718-5.52-7.646-5.52
					c0,0-6.929-0.159-7.327,8.238c0,0-0.796,9.039,7.484,9.597c0,0,6.692,0.081,7.487-5.678h-3.823c0,0-0.878,1.852-3.345,1.759
					C4.897,21.97,4.559,18.84,4.559,18.84S3.803,13.403,6.431,12.283z"/>
				<path fill="#686B8C" d="M16.546,4.125V26h4.46V6.845C21.005,6.845,21.005,4.204,16.546,4.125z"/>
				<path fill="#686B8C" d="M30.304,8.445c-5.196,0-7.784,3.93-7.784,8.775c0,4.849,2.588,8.779,7.784,8.779
					c4.917,0,7.784-3.931,7.784-8.779C38.088,12.374,35.42,8.445,30.304,8.445z M30.304,22.02c-2.002,0-3.624-2.146-3.624-4.799
					c0-2.648,1.622-4.798,3.624-4.798c2,0,3.622,2.15,3.622,4.798C33.926,19.873,32.305,22.02,30.304,22.02z"/>
				<path fill="#686B8C" d="M49.876,11.523c0,0,0.158,6.317,0,8.438c-0.16,2.119-3.066,2.398-3.066,2.398
					c-2.788-0.08-2.829-2.839-2.829-2.839V8.924h-4.579v10.918C39.442,25.88,46.789,26,46.789,26
					c5.195-0.039,6.551-3.199,6.551-3.199c0.757-1.16,0.836-3,0.836-3V8.923L53.1,8.924C50.393,8.844,49.876,11.523,49.876,11.523z"
					/>
				<path fill="#686B8C" d="M71.64,20.545l0.138-20.289c0,0-3.146-1.609-4.104,3.248v6.771c-0.072,0.007-0.141,0.006-0.208,0
					c-0.414-0.744-1.551-2.11-4.32-2.043c-4.048,0.097-7.313,3.255-7.28,8.987c0,5.284,2.741,8.771,6.756,8.771
					c2.126,0,3.76-0.206,4.849-1.347c0.257-0.089,0.696-0.168,1.179,0.016c0.47,0.529,1.189,1.095,2.154,1.195
					c0.065,0.007,0.138,0.012,0.222,0.016c0.027,0,0.053,0.005,0.077,0.005L71.1,25.872c0.17,0.004,0.385,0.002,0.675,0.004
					C71.708,24.722,71.64,22.429,71.64,20.545z M66.859,18.043c0,0.415-0.036,0.835-0.104,1.216
					c-0.312,1.494-1.558,2.537-3.081,2.537c-2.178,0-3.597-1.808-3.597-4.69c0-2.676,1.209-4.83,3.632-4.83
					c1.625,0,2.769,1.182,3.08,2.57c0.069,0.313,0.069,0.693,0.069,0.973V18.043L66.859,18.043z"/>
			</g>
			<g>
				<polygon fill="#686B8C" points="123.952,2.118 124.949,2.118 124.949,5.047 125.377,5.047 125.377,2.118 126.379,2.118 
					126.379,1.756 123.952,1.756 				"/>
				<path fill="#686B8C" d="M129.796,1.756h-0.54l-0.582,1.593c-0.148,0.415-0.265,0.776-0.348,1.11h-0.016
					c-0.081-0.344-0.193-0.705-0.33-1.11l-0.559-1.593h-0.54l-0.229,3.291h0.404l0.088-1.411c0.028-0.493,0.053-1.045,0.063-1.454
					h0.011c0.092,0.391,0.224,0.814,0.378,1.279l0.53,1.567h0.321l0.577-1.597c0.167-0.449,0.304-0.863,0.414-1.249h0.015
					c-0.005,0.41,0.024,0.961,0.047,1.421l0.085,1.444H130L129.796,1.756z"/>
			</g>
		</g>
	</g>
</g>
</svg>
